<?xml version="1.0" encoding="UTF-8"?>
<svg id="Layer_1" xmlns="http://www.w3.org/2000/svg" version="1.1" viewBox="0 0 853 1024">
  <!-- Generator: Adobe Illustrator 29.7.1, SVG Export Plug-In . SVG Version: 2.1.1 Build 8)  -->
  <defs>
    <style>
      .st0 {
        fill: #fff;
      }
    </style>
  </defs>
  <path d="M442.01,237.01c-.27,1.65,1.35.93,2.48.99,4.28.24,8.85-.36,13.06-.04,23.82,1.78,50.84,10.15,68.93,26.07,28.69,25.25,44.99,81.49,23.35,115.3-6.04,9.43-15,15.28-23.82,21.67,55.3,9.36,128.41,45.46,123.99,111.5-3.61,53.83-61.46,85.43-106.47,101.53l-38.51,10.97,91.54,1.97c28.07,2.34,56.7,1.58,84.46,7.05.26.26-.55,1.31-.98,1.51-2.72,1.28-15.56,2.15-19.53,2.47-40.07,3.23-81.72,2.19-122.03,2.97-149.64,2.89-300.28,3.46-449.92,0-29.56-.68-59.37.3-88.54-3.97,1.42-2.58,6.07-3.13,8.8-3.69,28.44-5.89,71.02-6.37,100.66-7.34,8.49-.28,17.05.3,25.54.03.25-1.48-1.88-1.25-2.98-1.49-26.1-5.84-51.63-13.38-73.34-29.67-30.04-22.53-36.38-58.46-31.55-94.21,9.16-67.8,67.5-103,130.88-110.63-27.95-32.88-5.08-82.15,19.49-110,11.08-12.56,26.56-26.3,43.51-29l-33.67-10.81c-42.03-19.28-17.42-80.88,8.67-103.69,46.48-40.63,140.08-19.92,197.47-17.45,37.31,1.61,88.21-4.43,105.3,38.7,17.1,43.13-20.74,68.66-56.76,79.27ZM278.79,124.29c-28.76,1.12-63.15,8.22-80.03,33.97-23.56,35.95,20.81,39.09,45.74,41.73,54.85,5.81,112.35,3.08,166.83-5.16,19.95-3.02,94.05-9.58,65.69-45.36-19.25-24.29-73.17-16.91-101.57-18.43-32.31-1.73-64.11-8.01-96.66-6.75ZM543,319c-5.05-18.88-13.41-35.34-29.1-47.4-47.51-36.5-114.61-14.37-168.52-7.73-30.62,3.77-61,5.83-91.91,5.17-12.52-.27-22.75-3.65-35.68.24-17.14,5.15-42.06,31.72-48.96,48.04-8.87,20.99,4.76,30.41,21.51,39.85,80.73,45.48,194.48-1.76,276.46-24.89,10.49-2.96,42.11-13.28,50.72-13.28h25.5ZM629.99,487.99c-11.58-44.98-68-65.74-109.62-70.87-31.17-3.84-56.57,5.37-87.04,9.71-63.69,9.07-180.71,17.62-239.3-8.37-19.58-8.68-19.64-14.32-44.57-12.51-43.89,3.19-91.33,36.5-103.18,79.82-7.2,26.34-2.2,36.43,21.7,48.74,42.44,21.86,89.71,17.85,135.35,11.31,117.22-16.78,232.52-44.12,351.17-53.83,25.13-2.05,50.38-2.55,75.49-4.01Z"/>
  <path d="M310.8,674.3c95.73-6.92,104.28,125.59,13.68,132.69-97.37,7.63-104.77-126.1-13.68-132.69ZM312.79,686.27c-46.74,4.19-44.08,125.68,16.01,107.03,36.35-11.28,36.33-111.72-16.01-107.03Z"/>
  <path d="M503,755v-58.5c0-5.85-10.05-12.95-15.99-11.51l.92-8.57c14.36.84,28.87.38,43.13.02l.89,8.52c-4.47.05-10.12,2.11-12.37,6.13-1.64,2.92-2.4,12.46-2.63,16.37-1.78,31.57,1.41,64.81.04,96.54h-14.5l-80.5-94v73.5c0,5.85,10.05,12.95,15.99,11.51l-.97,8.56-41.62.39-2.25-1.61-.11-7.3c16.99-1.12,13.3-13.53,13.91-25.59.59-11.62,1.16-23.45,1.08-34.92-.09-13.79-.35-27.55-1.81-41.27-2.64-6.84-9.37-8.87-16.24-8.26v-9s46.99,1.52,46.99,1.52l66.02,77.48Z"/>
  <path d="M344.79,824.29c34.27-3.5,69.08,11.37,78.71,46.7,16.72,61.3-50.78,101.69-102.52,74.52-56.52-29.67-38.3-114.88,23.81-121.22ZM350.76,835.26c-43.9,5.89-41.52,121.92,16.06,105.06,36.7-10.75,35.94-112.04-16.06-105.06Z"/>
  <path d="M114,869h42l-.1,7.9c-18.67,3.57-21.11,28.56-31.93,41.67-.27,3.1,12.61,15.07,16,15.96,6.44,1.69,11.63.26,17.03-3.1l3.93,4.93c-9.01,10.84-18.45,17.6-33.34,15.55-8.93-1.23-16-9.91-23.1-14.59-16.83,12.24-32.28,17.93-53,11.69-23.61-7.11-35.69-31.28-18.9-51.93,5.83-7.17,13.77-10.92,21.41-15.64-13.65-19.49-13.38-43.41,11.73-52.21,43.06-15.1,63.36,33.57,19.3,49.27l31.48,33.49c5.97-7.23,11.78-20.13,5.95-28.93-3.79-5.72-10.9-3.87-8.45-14.05ZM75.71,839.21c-12.94,2.96-7.77,25.77,1.74,30.8,18.35-4.12,21.14-36.03-1.74-30.8ZM98,930.98l-37-40.52c-22.26,19.43.16,53.01,27,45.03,3.58-1.06,6.41-3.71,10.01-4.52Z"/>
  <path d="M587,790c22.8,3.63,46.62.65,56.99-22.56l9.01,1.57-7.67,35.03-103.33-.04v-9c9.63-.08,13.27-1.63,14.04-11.45,2.22-28.58-1.66-60.07-.13-88.95-1.03-7.28-6.98-10.29-13.91-9.59l.02-9,99.99.99,3,33.01-8.35.04c-2-6.53-10.41-21.05-18.16-21.05h-31.5v42h20.5c4.28,0,14.24-7.44,13.61-12.89l7.89-.11v39.5c-8.66,5.9-7.7-4.5-12.97-9.03-1.7-1.46-7.67-4.47-9.53-4.47h-19.5v46Z"/>
  <path d="M484,826v8c-9.79-.43-13.81,3.05-14.87,12.62-1.53,13.78-1.64,57.62,1.57,70.17,7.53,29.42,56.47,29.09,60.18-6.42,1.53-14.66,1.58-47.13,0-61.75-.92-8.56-4.24-15.12-13.87-14.63v-8.99c11.1,1.59,23.19,1.2,34.54,1.04,2.68-.04,5.76-2.28,7.22.41l-.18,6.6c-6.95,2.66-11.08,3.33-12.5,11.52-4.3,24.92,5.86,73.41-9.11,91.89-18.5,22.85-71.74,22.68-89.95-1-15.6-20.28-3.79-67.93-8.26-92.74-1.24-6.9-8.39-9.53-14.77-8.73v-8.01h60.01Z"/>
  <path d="M105,680.04l.42,31.08-8.42,1.89c1.17-20.66-38.92-38.63-47.22-17.73-4.62,11.64,2.86,18.12,12.17,23.26,17.62,9.73,48.31,16.2,51.78,40.22,5.12,35.38-25.67,49.76-56.28,48.28-5.28-.26-29.99-4.08-33.41-6.59-1.26-.93-1.76-2.53-1.98-4.02l-3.07-33.43,9.88-.87c5.35,20.96,25.23,40.03,47.82,30.05,13.2-5.83,12.09-21.78,1.79-30.16-20.66-16.81-60.47-15.49-57.51-52.56,3.29-41.16,54.9-39.2,84.04-29.43Z"/>
  <path d="M267.86,830.14l.56,29.98-8.41,1.89c-1.16-12.91-12.4-25.74-25.62-26.91-18.91-1.67-26.56,17.5-11.3,29.32,20.01,15.49,53.13,14.95,54.94,48.05,2.42,44.11-59.59,46.48-88.9,34.41l-2.13-35.88,9.91.11c3.8,19.73,24.07,37.68,44.47,27.77,8.2-3.98,10.37-12.42,8.15-20.9-4.65-17.81-56.73-20.23-60.44-47.56-6.58-48.37,44.44-54.39,78.77-40.27Z"/>
  <path d="M164,689c-17.09.02-32.7,7.39-37.14,24.86l-9.86.13,5.58-37.06,112.76.02,6.67,37.04-9.96-.05c-2.27-18.1-20.73-24.98-37.04-24.96v96.5c0,6.88,11.3,10.57,17.01,9.49v9.01s-65.01,0-65.01,0v-9.01c6.21,1.2,17.01-3.46,17.01-10.5v-95.5Z"/>
  <path d="M611,936c22.17,3.88,46.42.89,53.1-23.89l9.9.9-9.5,36.99h-97.5v-8c12.16.38,14.3-4.51,15.05-15.45,1.43-20.88,1.6-55.2-.17-75.92-.52-6.11-.82-12.19-6.81-15.19-5.64-2.83-8.21-.12-7.06-9.44h55.5c.21,0,1.15-1.5,1.49-1l.57,8.02c-1.11,1.56-7.57.4-10.93,3.11-1.24,1-3.63,5.24-3.63,6.37v93.5Z"/>
  <path class="st0" d="M629.99,487.99c-25.11,1.46-50.35,1.96-75.49,4.01-118.66,9.7-233.96,37.05-351.17,53.83-45.64,6.53-92.91,10.55-135.35-11.31-23.89-12.31-28.9-22.39-21.7-48.74,11.85-43.33,59.29-76.63,103.18-79.82,24.93-1.81,25,3.82,44.57,12.51,58.6,25.99,175.62,17.44,239.3,8.37,30.47-4.34,55.87-13.54,87.04-9.71,41.62,5.13,98.04,25.89,109.62,70.87Z"/>
  <path class="st0" d="M543,319h-25.5c-8.61,0-40.23,10.33-50.72,13.28-81.98,23.13-195.73,70.37-276.46,24.89-16.75-9.44-30.38-18.86-21.51-39.85,6.9-16.32,31.82-42.89,48.96-48.04,12.93-3.89,23.16-.51,35.68-.24,30.92.66,61.29-1.4,91.91-5.17,53.92-6.64,121.02-28.77,168.52,7.73,15.69,12.06,24.06,28.52,29.1,47.4Z"/>
  <path class="st0" d="M278.79,124.29c32.55-1.27,64.36,5.02,96.66,6.75,28.4,1.52,82.32-5.86,101.57,18.43,28.36,35.78-45.75,42.34-65.69,45.36-54.48,8.25-111.98,10.97-166.83,5.16-24.93-2.64-69.3-5.78-45.74-41.73,16.88-25.75,51.27-32.86,80.03-33.97Z"/>
  <path class="st0" d="M312.79,686.27c52.34-4.69,52.36,95.75,16.01,107.03-60.09,18.65-62.75-102.84-16.01-107.03Z"/>
  <path class="st0" d="M350.76,835.26c52-6.98,52.76,94.31,16.06,105.06-57.58,16.86-59.96-99.16-16.06-105.06Z"/>
  <path class="st0" d="M98,930.98c-3.59.8-6.43,3.45-10.01,4.52-26.83,7.98-49.25-25.6-27-45.03l37,40.52Z"/>
  <path class="st0" d="M75.71,839.21c22.88-5.24,20.09,26.68,1.74,30.8-9.51-5.03-14.68-27.83-1.74-30.8Z"/>
</svg>